<!-- Generator: Adobe Illustrator 24.0.0, SVG Export Plug-In  -->
<svg version="1.1" xmlns="http://www.w3.org/2000/svg" xmlns:xlink="http://www.w3.org/1999/xlink" x="0px" y="0px" width="90px"
	 height="90px" viewBox="0 0 90 90" style="enable-background:new 0 0 90 90;" xml:space="preserve">
<style type="text/css">
	.st0{fill:#DADBE0;}
	.st1{fill:#0E2949;}
</style>
<defs>
</defs>
<g>
	<rect x="22.87" class="st0" width="6" height="90"/>
</g>
<g>
	<path class="st1" d="M77,4v82H13V4H77 M77,0H13c-2.21,0-4,1.79-4,4v82c0,2.21,1.79,4,4,4h64c2.21,0,4-1.79,4-4V4
		C81,1.79,79.21,0,77,0L77,0z"/>
</g>
<g>
	<path class="st1" d="M68.24,4.16v23.11l-7.02-4.01c-0.91-0.52-1.93-0.79-2.98-0.79c-1.04,0-2.07,0.27-2.98,0.79l-7.02,4.01V4.16
		H68.24 M70.24,0.16h-24c-1.1,0-2,0.9-2,2v28.55c0,1.17,0.96,2,2,2c0.33,0,0.67-0.08,0.99-0.27l10.02-5.72
		c0.31-0.18,0.65-0.26,0.99-0.26s0.68,0.09,0.99,0.26l10.02,5.72c0.32,0.18,0.66,0.27,0.99,0.27c1.04,0,2-0.84,2-2V2.16
		C72.24,1.06,71.34,0.16,70.24,0.16L70.24,0.16z"/>
</g>
<g>
	<rect y="86" class="st1" width="90" height="4"/>
</g>
<g>
	<rect x="38.87" y="56" class="st1" width="24" height="4"/>
</g>
<g>
	<rect x="38.87" y="66" class="st1" width="30" height="4"/>
</g>
</svg>
