<svg t="1575598554095" class="icon" viewBox="0 0 1024 1024" version="1.1" xmlns="http://www.w3.org/2000/svg" p-id="6814" width="200" height="200"><path d="M932.706462 247.886769a388.332308 388.332308 0 0 0-94.916924-120.516923 452.371692 452.371692 0 0 0-137.846153-81.132308A468.519385 468.519385 0 0 0 535.630769 16.541538h-0.236307c-56.241231 0-111.537231 9.924923-164.391385 29.696a452.371692 452.371692 0 0 0-137.846154 81.132308c-40.487385 34.894769-72.467692 75.618462-94.838154 120.516923-23.473231 47.261538-35.446154 97.201231-35.446154 148.322462 0 71.286154 17.486769 144.462769 51.987693 217.718154 28.593231 60.573538 69.080615 121.698462 120.359384 181.720615 91.687385 107.441231 194.953846 184.32 235.047385 212.361846a43.795692 43.795692 0 0 0 50.491077 0c40.172308-28.041846 143.438769-104.920615 235.047384-212.361846 51.2-60.022154 91.766154-121.147077 120.280616-181.720615 34.658462-73.255385 52.066462-146.510769 52.066461-217.718154 0-51.2-11.972923-101.060923-35.446153-148.322462zM693.720615 583.207385a222.129231 222.129231 0 0 1-158.247384 65.45723c-59.785846 0-115.790769-23.236923-158.168616-65.378461a222.129231 222.129231 0 0 1-65.378461-158.247385c0-59.864615 23.236923-115.790769 65.378461-158.168615a222.129231 222.129231 0 0 1 158.168616-65.457231c59.707077 0 115.869538 23.236923 158.247384 65.457231a222.129231 222.129231 0 0 1 65.378462 158.168615 222.129231 222.129231 0 0 1-65.378462 158.168616z" p-id="6815" fill="#4293F4"></path></svg>